# xmcd CD database file
#
# Track frame offsets:
#	150
#	12046
#	31854
#	43677
#	59728
#	70790
#	89835
#	132176
#	149124
#	166394
#	176763
#
# Disc length: 2526 seconds
#
# Revision: 0
# Processed by: cddbd v1.5.2PL0 Copyright (c) Steve Scherf et al.
# Submitted via: CDex 1.51
#
DISCID=a109dc0b
DTITLE=Lyngvig, Trine - Hjertets sprog
DYEAR=2006
DGENRE=Jazz
TTITLE0=I Danmark er jeg født
TTITLE1=Rejsen
TTITLE2=Det er i dag et vejr
TTITLE3=Jeg gik mig ud en sommerdag
TTITLE4=Ramund
TTITLE5=Det var en lørdag aften
TTITLE6=Agnete og havmanden
TTITLE7=Det er så yndigt
TTITLE8=Sig månen langsomt hæver
TTITLE9=Højt på en gren en krage
TTITLE10=Visselulle, Godnat
EXTD=YEAR: 2006
EXTT0=
EXTT1=
EXTT2=
EXTT3=
EXTT4=
EXTT5=
EXTT6=
EXTT7=
EXTT8=
EXTT9=
EXTT10=
PLAYORDER=
